<svg version="1.1" id="logo-color-1" xmlns="http://www.w3.org/2000/svg" xmlns:xlink="http://www.w3.org/1999/xlink" x="0px"
	 y="0px" viewBox="0 0 49.7 26.2" style="enable-background:new 0 0 49.7 26.2;" xml:space="preserve">
<style type="text/css">
	.st0{enable-background:new    ;}
	.st1{fill:#ffffff;}
</style>
<g class="st0">
	<path class="st1" d="M5.2,15.3v10.6H0V2.6h7.9c0.8,0,1.5,0.1,2.1,0.3c0.6,0.2,1,0.5,1.4,0.9s0.6,0.8,0.8,1.4
		c0.2,0.6,0.3,1.2,0.4,1.8s0.1,1.3,0.1,2.1c0,0.4,0,0.8,0,1.1c0,0.3-0.1,0.6-0.2,1.1c-0.1,0.4-0.2,0.8-0.4,1.1s-0.4,0.6-0.8,0.8
		s-0.7,0.5-1.2,0.6c0.5,0.1,0.9,0.3,1.2,0.5s0.5,0.5,0.7,0.9s0.2,0.7,0.3,1c0,0.3,0.1,0.6,0.1,1c0,3.9,0,6.8-0.1,8.8h-5v-9.1
		c0-0.4,0-0.6-0.1-0.9s-0.2-0.4-0.4-0.5s-0.4-0.1-0.6-0.2S5.6,15.3,5.2,15.3z M5.2,6.9v4.4h1.3c0.7,0,1-0.7,1-2.1
		c0-0.9-0.1-1.6-0.4-1.8S6.3,6.9,5.5,6.9H5.2z"/>
	<path class="st1" d="M20.6,26.2c-0.8,0-1.5-0.1-2.1-0.2c-0.6-0.2-1.2-0.4-1.6-0.6s-0.8-0.6-1.1-1c-0.3-0.4-0.6-0.8-0.8-1.2
		s-0.3-0.9-0.4-1.4s-0.2-1-0.2-1.5s-0.1-0.9-0.1-1.5V9.9c0-2,0.6-3.6,1.7-4.6c1.2-1.1,2.8-1.6,4.9-1.6c4.2,0,6.3,2.1,6.3,6.2v1.6
		c0,2,0,3.3-0.1,4.1h-7.6v3.1c0,0.1,0,0.3,0,0.5c0,0.2,0,0.4,0,0.5c0,0.4,0,0.7,0,0.9c0,0.2,0.1,0.5,0.2,0.8s0.2,0.5,0.4,0.6
		c0.2,0.1,0.4,0.2,0.7,0.2c0.3,0,0.5-0.1,0.7-0.3c0.2-0.2,0.3-0.5,0.4-0.9s0.1-0.7,0.1-1s0-0.7,0-1.1c0-0.9,0-1.3,0-1.4h5.2v1.2
		c0,1.2-0.1,2.3-0.3,3.1s-0.5,1.6-1,2.3c-0.5,0.7-1.1,1.2-2,1.5S21.9,26.2,20.6,26.2z M20.8,7.6c-0.3,0-0.5,0.1-0.7,0.2
		c-0.2,0.1-0.3,0.4-0.4,0.6S19.5,9,19.5,9.3s0,0.7,0,1.1c0,0.2,0,0.5,0,0.9s0,0.7,0,0.9h2.5V10C21.9,8.4,21.6,7.6,20.8,7.6z"/>
	<path class="st1" d="M29.2,2.6V0h5.2v2.6H29.2z M29.2,25.9v-22h5.2v22H29.2z"/>
	<path class="st1" d="M43.1,26.2c-4.4,0-6.6-2.3-6.6-6.8v-8.8c0-2.1,0.6-3.8,1.8-5s2.8-1.8,4.8-1.8c2,0,3.6,0.6,4.8,1.8
		s1.8,2.9,1.8,5v8.8c0,2.3-0.6,4-1.7,5.1S45.3,26.2,43.1,26.2z M41.9,9.7v10.7c0,0.6,0.1,1,0.3,1.3s0.5,0.4,0.9,0.4s0.7-0.1,0.9-0.4
		s0.3-0.7,0.3-1.3V9.7c0-1.3-0.4-1.9-1.2-1.9S41.9,8.4,41.9,9.7z"/>
</g>
</svg>
